# xmcd
#
# Track frame offsets: 
#        150
#        19497
#        41598
#        71611
#        94943
#        115562
#        133158
#        153760
#        175340
#        193978
#
# Disc length: 2800 seconds
#
# Revision: 0
# Processed by: cddbd v1.5.1PL0 Copyright (c) Steve Scherf et al.
# Submitted via: ExactAudioCopy v0.95a4
#
DISCID=890aee0a
DTITLE=Various Artist - Wolf Dance 2004
DYEAR=2004
DGENRE=Country
TTITLE0=Robert Earl Keen - Out Here in the Middle
TTITLE1=Kevin Fowler - Not Lovin' Anymore
TTITLE2=Charlie Robinson - Sunset Boulevard
TTITLE3=Reckless Kelly - 1952 Vincent Black Lightning
TTITLE4=Jack Ingram - Hey You
TTITLE5=Aaron Watson - Reckless
TTITLE6=Cory Morrow - 21 Days
TTITLE7=Cooder Graw - Clarksdale
TTITLE8=Roger Creager - Things Look Good Around Here
TTITLE9=Eleven Hundred Springs - See You in the Next Life
EXTD=
EXTT0=
EXTT1=
EXTT2=
EXTT3=
EXTT4=
EXTT5=
EXTT6=
EXTT7=
EXTT8=
EXTT9=
PLAYORDER=
